<svg width="48" height="48" xmlns="http://www.w3.org/2000/svg" class="_3DcWt3K51oZ6FPHNt5PPgL hidden-lg-up"><defs><linearGradient x1="21.279%" y1="21.34%" x2="78.45%" y2="78.512%" id="a"><stop stop-color="#FFF" offset="0%"/><stop stop-color="#C8102E" offset="100%"/></linearGradient><linearGradient x1="78.623%" y1="78.684%" x2="21.454%" y2="21.515%" id="b"><stop stop-color="#FFF" offset="0%"/><stop stop-color="#C8102E" offset="100%"/></linearGradient></defs><g fill="none"><path fill="#C8102E" d="M0 0h47.783v47.783H0z"/><path d="M11.802 15.302V32.23l4.042 2.598 8.012-8.048 8.048 8.048 4.042-2.598V15.302l-4.042-2.273-8.012 8.048-8.048-8.048-4.042 2.273zm14.94 8.626l5.162-5.161v10.322l-5.161-5.161zm-10.898 5.16v-10.32l5.16 5.16-5.16 5.162z" fill="#FFF"/><path fill="url(#a)" d="M6.93 4.078L4.041 6.965.144 3.032 2.995.18z" transform="translate(18.406 18.406)"/><path fill="url(#b)" d="M4.042 6.965L6.93 4.078l3.898 3.934-2.851 2.851z" transform="translate(18.406 18.406)"/><path fill="#FFF" d="M25.877 19.092l2.85 2.887-6.82 6.785-2.851-2.851z"/></g></svg>
