<svg xmlns="http://www.w3.org/2000/svg" width="48" height="48" class="_3DcWt3K51oZ6FPHNt5PPgL hidden-lg-up"><g fill="none"><path fill="#07070726" d="M0 0h47.783v47.783H0z"/><path d="M11.802 15.302V32.23l4.042 2.598 8.012-8.048 8.048 8.048 4.042-2.598V15.302l-4.042-2.273-8.012 8.048-8.048-8.048-4.042 2.273zm14.94 8.626l5.162-5.161v10.322l-5.161-5.161zm-10.898 5.16v-10.32l5.16 5.16-5.16 5.162z" fill="#FFF"/><path fill="#07070726" d="M25.336 22.484l-2.889 2.887-3.897-3.933 2.851-2.852z"/><path fill="#07070726" d="M22.448 25.371l2.888-2.887 3.898 3.934-2.851 2.851z"/><path fill="#FFF" d="M25.877 19.092l2.85 2.887-6.82 6.785-2.851-2.851z"/></g></svg>
